<svg width="246" height="25" viewBox="0 0 246 25" fill="none" xmlns="http://www.w3.org/2000/svg">
<path d="M4 12.5C10.6111 1.16667 17.2222 1.16667 23.8333 12.5C30.4444 23.8333 37.0556 23.8333 43.6667 12.5C50.2778 1.16667 56.8889 1.16667 63.5 12.5C70.1111 23.8333 76.7222 23.8333 83.3333 12.5C89.9444 1.16667 96.5556 1.16667 103.167 12.5C109.778 23.8333 116.389 23.8333 123 12.5C129.611 1.16667 136.222 1.16667 142.833 12.5C149.444 23.8333 156.056 23.8333 162.667 12.5C169.278 1.16667 175.889 1.16667 182.5 12.5C189.111 23.8333 195.722 23.8333 202.333 12.5C208.944 1.16667 215.556 1.16667 222.167 12.5C228.778 23.8333 235.389 23.8333 242 12.5" stroke="#3374E0" stroke-width="7"/>
</svg>
