<svg width="80" height="80" viewBox="0 0 80 80" fill="none" xmlns="http://www.w3.org/2000/svg">
<rect width="80" height="80" fill="white"/>
<path d="M38.605 54.38C39.0817 55.59 39.6317 56.47 40.255 57.02C40.8783 57.57 41.4833 57.8633 42.07 57.9V59C39.87 58.89 37.0833 58.835 33.71 58.835C29.97 58.835 27.1833 58.89 25.35 59V57.9C26.7433 57.8267 27.7333 57.6617 28.32 57.405C28.9067 57.1117 29.2 56.6167 29.2 55.92C29.2 55.26 28.98 54.38 28.54 53.28L25.24 44.26H13.25L11.82 48.055C10.7933 50.695 10.28 52.73 10.28 54.16C10.28 55.5167 10.6833 56.47 11.49 57.02C12.3333 57.5333 13.5617 57.8267 15.175 57.9V59C12.6817 58.89 10.4083 58.835 8.355 58.835C6.66833 58.835 5.275 58.89 4.175 59V57.9C5.97167 57.57 7.54833 55.645 8.905 52.125L21.445 19.95C21.8483 19.9867 22.49 20.005 23.37 20.005C24.25 20.005 24.8733 19.9867 25.24 19.95L38.605 54.38ZM24.855 43.16L19.41 28.31L13.69 43.16H24.855ZM63.4646 29.795C66.2512 29.795 68.2679 30.51 69.5146 31.94C70.1379 32.6367 70.5779 33.535 70.8346 34.635C71.0912 35.735 71.2196 37.22 71.2196 39.09V53.885C71.2196 55.3883 71.4762 56.4333 71.9896 57.02C72.5396 57.57 73.4562 57.845 74.7396 57.845V59C71.0729 58.8533 68.6529 58.78 67.4796 58.78C66.3796 58.78 63.9962 58.8533 60.3296 59V57.845C61.4296 57.845 62.1996 57.57 62.6396 57.02C63.0796 56.4333 63.2996 55.3883 63.2996 53.885V36.78C63.2996 35.2767 63.0429 34.14 62.5296 33.37C62.0529 32.6 61.1729 32.215 59.8896 32.215C58.3862 32.215 57.1029 32.8383 56.0396 34.085C54.9762 35.295 54.4446 36.7983 54.4446 38.595V53.885C54.4446 55.3883 54.6646 56.4333 55.1046 57.02C55.5446 57.57 56.3146 57.845 57.4146 57.845V59C54.0412 58.8533 51.7679 58.78 50.5946 58.78C49.4946 58.78 46.9646 58.8533 43.0046 59V57.845C44.3246 57.845 45.2412 57.57 45.7546 57.02C46.2679 56.4333 46.5246 55.3883 46.5246 53.885V36.56C46.5246 34.8733 46.2679 33.645 45.7546 32.875C45.2412 32.105 44.3246 31.72 43.0046 31.72V30.565C44.1779 30.675 45.3146 30.73 46.4146 30.73C49.6779 30.73 52.3546 30.4733 54.4446 29.96V34.91C56.0946 31.5 59.1012 29.795 63.4646 29.795Z" fill="black"/>
</svg>
